<svg width="149" height="118" viewBox="0 0 149 118" fill="none" xmlns="http://www.w3.org/2000/svg">
<path fill-rule="evenodd" clip-rule="evenodd" d="M134.881 13.2679L149 27.3867L122.317 54.0695L119.111 50.8631L115.039 38.1372L110.78 42.3962L113.131 48.5973L106.93 46.2463L102.603 50.5735L115.329 54.6451L118.535 57.8515L113.353 63.0334L101.748 51.4282L97.1313 56.045L101.782 65.8749L91.8842 61.2921L87.2504 65.926L98.8555 77.5311L90.9341 85.4525C91.0808 85.117 91.2039 84.7757 91.3035 84.4286C91.7237 82.9408 91.7294 81.4814 91.3205 80.0503C90.9117 78.6193 90.1337 77.3302 88.9866 76.1832C87.8281 75.0247 86.539 74.2467 85.1194 73.8492C83.6997 73.4517 82.2573 73.4744 80.7922 73.9174C79.3385 74.3489 77.9813 75.1951 76.7206 76.4557L71.6949 81.4814L83.3001 93.0865L81.5914 94.7952L69.9863 83.19L66.2043 86.9721L72.3713 93.1391L62.2008 90.9755L58.4188 94.7576L70.0239 106.363L68.3158 108.071L56.7106 96.4657L52.9286 100.248L64.5338 111.853L58.5167 117.87L54.4245 113.778L57.8317 110.37L54.9867 107.525L51.5794 110.933L49.9099 109.263L54.6459 104.527L51.6476 101.529L43.2505 109.926L40.7368 107.412L134.881 13.2679ZM133.244 11.6308L121.613 0L54.8556 66.7577L27.3867 39.2888L0 66.6754L4.42014 71.0956C4.40181 70.9377 4.38993 70.7788 4.38449 70.6191C4.3277 68.9495 5.07161 67.3425 6.61622 65.7979L10.3471 69.5288C9.85876 70.0171 9.59186 70.443 9.54643 70.8065C9.51236 71.1586 9.63161 71.4709 9.90419 71.7435C10.1313 71.9706 10.3812 72.0728 10.6538 72.0501C10.9264 72.0274 11.2444 71.8343 11.6078 71.4709L19.3933 63.6854L23.1583 67.4504L15.3728 75.2359C13.9304 76.6783 12.4539 77.3938 10.9434 77.3824C10.8617 77.3818 10.7803 77.3791 10.699 77.3744L16.0306 82.706C15.7474 81.3938 15.7771 80.0727 16.1197 78.7426C16.5058 77.2435 17.2895 75.9033 18.4707 74.7221C19.6518 73.5409 20.992 72.7573 22.4912 72.3711C23.9904 71.985 25.4725 72.002 26.9376 72.4222C28.4254 72.8425 29.7372 73.6205 30.873 74.7562C32.0087 75.8919 32.781 77.198 33.1899 78.6745C33.6101 80.1396 33.6214 81.6161 33.2239 83.1039C32.8378 84.6031 32.0541 85.9432 30.873 87.1244C29.6918 88.3056 28.3516 89.0892 26.8524 89.4754C25.5325 89.828 24.2125 89.8589 22.8925 89.5679L27.0253 93.7007L38.217 82.5091L44.367 88.6591C45.5936 89.8857 46.2921 91.118 46.4624 92.3559C46.6328 93.5939 46.2069 94.724 45.1847 95.7461C44.4806 96.4503 43.6969 96.8591 42.8338 96.9727C41.9933 97.0863 41.1869 96.9159 40.4146 96.4616C40.9711 97.3589 41.1813 98.2731 41.045 99.2045C40.9314 100.136 40.5282 100.948 39.8354 101.641C38.7901 102.686 37.6336 103.153 36.3659 103.041L39.0998 105.775L133.244 11.6308ZM104.031 61.241L109.588 66.7984L107.872 68.5144L104.031 61.241ZM97.0802 68.1918L104.354 72.0331L102.638 73.7491L97.0802 68.1918ZM68.1975 96.9722L77.5082 98.8785L73.8059 102.581L68.1975 96.9722ZM24.4674 84.6371C23.5815 84.7053 22.7638 84.3645 22.0142 83.615C21.2532 82.854 20.9068 82.0306 20.975 81.1447C21.0545 80.2475 21.5031 79.39 22.3208 78.5723C23.1499 77.7432 24.0074 77.2946 24.8933 77.2264C25.7905 77.1469 26.6196 77.4876 27.3806 78.2486C28.1301 78.9982 28.4652 79.8216 28.3857 80.7188C28.3175 81.6047 27.8689 82.4622 27.0398 83.2913C26.2221 84.109 25.3646 84.5576 24.4674 84.6371ZM37.297 90.9931L38.7621 92.4582C39.1029 92.7989 39.4209 92.9806 39.7162 93.0033C40.0228 93.0374 40.3181 92.9125 40.602 92.6285C40.8973 92.3332 41.0279 92.0322 40.9939 91.7256C40.9825 91.419 40.8065 91.0953 40.4657 90.7545L39.0006 89.2894L37.297 90.9931ZM34.6905 97.0409C35.0312 97.3816 35.3436 97.569 35.6275 97.6031C35.9341 97.6371 36.2351 97.5065 36.5304 97.2112C37.1096 96.632 37.0642 96.0073 36.3941 95.3373L34.6735 93.6166L32.9699 95.3202L34.6905 97.0409ZM85.0683 85.4849C85.9201 84.6331 86.363 83.7245 86.3971 82.7591C86.4312 81.7937 86.0166 80.8794 85.1535 80.0163C84.2903 79.1531 83.376 78.7386 82.4106 78.7726C81.4453 78.8067 80.5367 79.2496 79.6849 80.1015L78.782 81.0044L84.1654 86.3878L85.0683 85.4849Z" fill="#215B67"/>
</svg>
